<svg xmlns="http://www.w3.org/2000/svg" height="16" width="16"><path d="M0-.02h2.999v2.988H0zM4.388-.017h2.983V2.97H4.388zM8.576-.013h2.983v2.988H8.576zM13.033-.016h2.983v2.988h-2.983z"/><g><path d="M-.026 4.329h2.999v2.988H-.026zM4.362 4.332h2.983V7.32H4.362zM8.55 4.336h2.983v2.988H8.55zM13.007 4.333h2.983V7.32h-2.983z"/></g><g><path d="M-.002 8.606h2.999v2.988H-.002zM4.386 8.609h2.983v2.988H4.386zM8.574 8.613h2.983V11.6H8.574zM13.031 8.61h2.983v2.988h-2.983z"/></g><g><path d="M.032 13.01h3v2.988h-3zM4.42 13.012h2.983v2.989H4.42zM8.608 13.016h2.983v2.989H8.608zM13.065 13.013h2.983v2.989h-2.983z"/></g></svg>