<svg xmlns="http://www.w3.org/2000/svg" height="16" width="16"><path d="M0-.034h2.005v2.016H0zM2.873-.036h1.973V1.98H2.873zM5.593-.031h2.02v2.015h-2.02zM8.44-.03h1.989v2.016H8.44zM11.202-.031h1.989v2.015h-1.989zM14.049-.032h1.989v2.016h-1.989z"/><g><path d="M0 2.712h2.005v2.015H0zM2.873 2.71h1.973v2.015H2.873zM5.593 2.714h2.02V4.73h-2.02zM8.44 2.716h1.989v2.016H8.44zM11.202 2.714h1.989V4.73h-1.989zM14.049 2.714h1.989V4.73h-1.989z"/></g><g><path d="M-.019 5.424h2.005v2.015H-.019zM2.854 5.422h1.973v2.015H2.854zM5.574 5.426h2.02v2.016h-2.02zM8.421 5.428h1.99v2.016H8.42zM11.183 5.426h1.99v2.016h-1.99zM14.03 5.426h1.99v2.016h-1.99z"/></g><g><path d="M-.036 8.414H1.97v2.016H-.036zM2.837 8.412H4.81v2.016H2.837zM5.557 8.417h2.02v2.016h-2.02zM8.404 8.42h1.99v2.015h-1.99zM11.166 8.417h1.99v2.016h-1.99zM14.013 8.417h1.99v2.016h-1.99z"/></g><g><path d="M.015 11.211H2.02v2.016H.015zM2.888 11.21h1.973v2.015H2.888zM5.608 11.214h2.02v2.015h-2.02zM8.455 11.216h1.99v2.016h-1.99zM11.217 11.214h1.99v2.015h-1.99zM14.064 11.213h1.99v2.016h-1.99z"/></g><g><path d="M.015 13.974H2.02v2.016H.015zM2.888 13.972h1.973v2.016H2.888zM5.608 13.976h2.02v2.016h-2.02zM8.455 13.978h1.99v2.016h-1.99zM11.217 13.976h1.99v2.016h-1.99zM14.064 13.976h1.99v2.016h-1.99z"/></g></svg>